<?xml version="1.0" standalone="no"?><!-- Generator: Gravit.io --><svg xmlns="http://www.w3.org/2000/svg" xmlns:xlink="http://www.w3.org/1999/xlink" style="isolation:isolate" viewBox="0 0 276.725 72.963" width="276.725" height="72.963"><defs><clipPath id="_clipPath_Cds92YiWtnVCGF59bLrPlNC2fWk2jMl5"><rect width="276.725" height="72.963"/></clipPath></defs><g clip-path="url(#_clipPath_Cds92YiWtnVCGF59bLrPlNC2fWk2jMl5)"><rect width="276.725" height="72.963" style="fill:rgb(0,0,0)" fill-opacity="0"/><path d=" M 6 13.892 L 88.606 11.066 L 37.273 66.963 L 6 13.892 Z " fill="none" vector-effect="non-scaling-stroke" stroke-width="4" stroke="rgb(137,200,255)" stroke-linejoin="miter" stroke-linecap="square" stroke-miterlimit="3"/><path d=" M 2.218 23.405 L 81.489 0 L 45.776 66.963 L 2.218 23.405 Z " fill="rgb(10,142,255)"/><path d=" M 6 13.892 L 88.606 11.066 L 37.273 66.963 L 6 13.892 Z " fill="none" vector-effect="non-scaling-stroke" stroke-width="4" stroke="rgb(137,200,255)" stroke-linejoin="miter" stroke-linecap="square" stroke-miterlimit="3"/><linearGradient id="_lgradient_0" x1="0" y1="0.5" x2="1.3038031589497268" y2="1.1330620576845616" gradientTransform="matrix(79.271,0,0,54.485,2.218,0)" gradientUnits="userSpaceOnUse"><stop offset="33.47826086956522%" stop-opacity="1" style="stop-color:rgb(10,142,255)"/><stop offset="100%" stop-opacity="1" style="stop-color:rgb(153,208,255)"/></linearGradient><path d=" M 2.218 23.405 L 81.489 0 Q 76.325 9.922 70.513 20.485 Q 35.013 34.297 33.513 54.485 L 2.218 23.405 Z " fill="url(#_lgradient_0)"/><path d=" M 81.282 45.576 L 81.282 59.204 L 76.513 59.204 L 76.513 14.914 L 86.802 14.914 L 86.802 14.914 Q 92.116 14.914 94.876 17.435 L 94.876 17.435 L 94.876 17.435 Q 97.636 19.956 97.636 24.453 L 97.636 24.453 L 97.636 36.037 L 97.636 36.037 Q 97.636 40.602 94.91 43.089 L 94.91 43.089 L 94.91 43.089 Q 92.185 45.576 86.802 45.576 L 86.802 45.576 L 81.282 45.576 Z  M 92.866 36.037 L 92.866 36.037 L 92.866 24.453 L 92.866 24.453 Q 92.866 21.864 91.299 20.433 L 91.299 20.433 L 91.299 20.433 Q 89.732 19.002 86.802 19.002 L 86.802 19.002 L 81.282 19.002 L 81.282 41.488 L 86.802 41.488 L 86.802 41.488 Q 92.866 41.488 92.866 36.037 Z " fill-rule="evenodd" fill="rgb(0,0,0)"/><path d=" M 108.765 28.065 L 108.765 59.204 L 103.995 59.204 L 103.995 14.914 L 106.039 14.914 L 108.015 19.956 L 108.015 19.956 Q 110.196 13.892 114.965 13.892 L 114.965 13.892 L 114.965 13.892 Q 123.074 13.892 123.074 22.75 L 123.074 22.75 L 123.074 27.179 L 118.509 27.179 L 118.509 22.477 L 118.509 22.477 Q 118.509 17.98 114.761 17.98 L 114.761 17.98 L 114.761 17.98 Q 112.512 17.98 110.639 20.569 L 110.639 20.569 L 110.639 20.569 Q 108.765 23.159 108.765 28.065 L 108.765 28.065 Z " fill="rgb(0,0,0)"/><path d=" M 148.853 23.431 L 148.853 23.431 L 148.853 50.686 L 148.853 50.686 Q 148.853 55.252 145.957 57.739 L 145.957 57.739 L 145.957 57.739 Q 143.061 60.226 137.303 60.226 L 137.303 60.226 L 137.303 60.226 Q 131.546 60.226 128.616 57.739 L 128.616 57.739 L 128.616 57.739 Q 125.686 55.252 125.686 50.686 L 125.686 50.686 L 125.686 23.431 L 125.686 23.431 Q 125.686 18.866 128.582 16.379 L 128.582 16.379 L 128.582 16.379 Q 131.478 13.892 137.235 13.892 L 137.235 13.892 L 137.235 13.892 Q 142.993 13.892 145.923 16.379 L 145.923 16.379 L 145.923 16.379 Q 148.853 18.866 148.853 23.431 Z  M 144.083 50.686 L 144.083 50.686 L 144.083 23.431 L 144.083 23.431 Q 144.083 17.98 137.269 17.98 L 137.269 17.98 L 137.269 17.98 Q 130.455 17.98 130.455 23.431 L 130.455 23.431 L 130.455 50.686 L 130.455 50.686 Q 130.455 56.138 137.269 56.138 L 137.269 56.138 L 137.269 56.138 Q 144.083 56.138 144.083 50.686 Z " fill-rule="evenodd" fill="rgb(0,0,0)"/><path d=" M 165.092 51.64 L 165.092 14.914 L 169.862 14.914 L 169.862 51.368 L 169.862 51.368 Q 169.862 55.729 167.409 57.977 L 167.409 57.977 L 167.409 57.977 Q 164.956 60.226 160.595 60.226 L 160.595 60.226 L 160.595 60.226 Q 156.234 60.226 153.85 57.977 L 153.85 57.977 L 153.85 57.977 Q 151.465 55.729 151.465 51.368 L 151.465 51.368 L 151.465 46.939 L 156.234 46.939 L 156.234 51.64 L 156.234 51.64 Q 156.234 56.138 160.595 56.138 L 160.595 56.138 L 160.595 56.138 Q 165.092 56.138 165.092 51.64 L 165.092 51.64 Z " fill="rgb(0,0,0)"/><path d=" M 182.013 50.686 L 182.013 50.686 L 182.013 46.939 L 177.244 46.939 L 177.244 50.686 L 177.244 50.686 Q 177.244 55.252 180.037 57.739 L 180.037 57.739 L 180.037 57.739 Q 182.831 60.226 188.418 60.226 L 188.418 60.226 L 188.418 60.226 Q 194.006 60.226 196.867 57.739 L 196.867 57.739 L 196.867 57.739 Q 199.729 55.252 199.729 50.686 L 199.729 50.686 L 199.729 23.431 L 199.729 23.431 Q 199.729 18.866 196.935 16.379 L 196.935 16.379 L 196.935 16.379 Q 194.142 13.892 188.555 13.892 L 188.555 13.892 L 188.555 13.892 Q 182.967 13.892 180.105 16.379 L 180.105 16.379 L 180.105 16.379 Q 177.244 18.866 177.244 23.431 L 177.244 23.431 L 177.244 38.422 L 194.959 38.422 L 194.959 50.686 L 194.959 50.686 Q 194.959 56.138 188.486 56.138 L 188.486 56.138 L 188.486 56.138 Q 182.013 56.138 182.013 50.686 Z  M 194.959 23.431 L 194.959 23.431 L 194.959 34.333 L 182.013 34.333 L 182.013 23.431 L 182.013 23.431 Q 182.013 17.98 188.486 17.98 L 188.486 17.98 L 188.486 17.98 Q 194.959 17.98 194.959 23.431 Z " fill-rule="evenodd" fill="rgb(23,148,255)"/><path d=" M 224.486 50.686 L 224.486 50.686 L 224.486 46.939 L 229.256 46.939 L 229.256 50.686 L 229.256 50.686 Q 229.256 55.252 226.462 57.739 L 226.462 57.739 L 226.462 57.739 Q 223.668 60.226 218.081 60.226 L 218.081 60.226 L 218.081 60.226 Q 212.494 60.226 209.632 57.739 L 209.632 57.739 L 209.632 57.739 Q 206.77 55.252 206.77 50.686 L 206.77 50.686 L 206.77 23.431 L 206.77 23.431 Q 206.77 18.866 209.564 16.379 L 209.564 16.379 L 209.564 16.379 Q 212.357 13.892 217.945 13.892 L 217.945 13.892 L 217.945 13.892 Q 223.532 13.892 226.394 16.379 L 226.394 16.379 L 226.394 16.379 Q 229.256 18.866 229.256 23.431 L 229.256 23.431 L 229.256 29.904 L 224.486 29.904 L 224.486 23.431 L 224.486 23.431 Q 224.486 17.98 218.013 17.98 L 218.013 17.98 L 218.013 17.98 Q 211.54 17.98 211.54 23.431 L 211.54 23.431 L 211.54 50.686 L 211.54 50.686 Q 211.54 56.138 218.013 56.138 L 218.013 56.138 L 218.013 56.138 Q 224.486 56.138 224.486 50.686 Z " fill="rgb(0,0,0)"/><path d=" M 235.615 51.368 L 235.615 14.914 L 250.606 14.914 L 250.606 19.002 L 240.385 19.002 L 240.385 51.64 L 240.385 51.64 Q 240.385 53.548 241.373 54.843 L 241.373 54.843 L 241.373 54.843 Q 242.361 56.138 244.167 56.138 L 244.167 56.138 L 244.167 56.138 Q 245.972 56.138 246.926 54.877 L 246.926 54.877 L 246.926 54.877 Q 247.88 53.616 247.88 51.64 L 247.88 51.64 L 247.88 43.532 L 252.65 43.532 L 252.65 51.368 L 252.65 51.368 Q 252.65 55.661 250.367 57.943 L 250.367 57.943 L 250.367 57.943 Q 248.084 60.226 244.201 60.226 L 244.201 60.226 L 244.201 60.226 Q 240.317 60.226 237.966 57.943 L 237.966 57.943 L 237.966 57.943 Q 235.615 55.661 235.615 51.368 L 235.615 51.368 Z " fill="rgb(0,0,0)"/><path d=" M 262.416 28.065 L 262.416 59.204 L 257.647 59.204 L 257.647 14.914 L 259.691 14.914 L 261.667 19.956 L 261.667 19.956 Q 263.847 13.892 268.617 13.892 L 268.617 13.892 L 268.617 13.892 Q 276.725 13.892 276.725 22.75 L 276.725 22.75 L 276.725 27.179 L 272.16 27.179 L 272.16 22.477 L 272.16 22.477 Q 272.16 17.98 268.412 17.98 L 268.412 17.98 L 268.412 17.98 Q 266.164 17.98 264.29 20.569 L 264.29 20.569 L 264.29 20.569 Q 262.416 23.159 262.416 28.065 L 262.416 28.065 Z " fill="rgb(0,0,0)"/></g></svg>