<?xml version="1.0" standalone="no"?><!-- Generator: Gravit.io --><svg xmlns="http://www.w3.org/2000/svg" xmlns:xlink="http://www.w3.org/1999/xlink" style="isolation:isolate" viewBox="0 0 354.183 86.058" width="354.183" height="86.058"><defs><clipPath id="_clipPath_r1tkDflrwzj1dwdmUAFo8VSuqrpBeMlI"><rect width="354.183" height="86.058"/></clipPath></defs><g clip-path="url(#_clipPath_r1tkDflrwzj1dwdmUAFo8VSuqrpBeMlI)"><rect width="354.183" height="86.058" style="fill:rgb(0,0,0)" fill-opacity="0"/><rect x="158.065" y="60.416" width="149.284" height="8.781" transform="matrix(1,0,0,1,0,0)" fill="rgb(10,142,255)"/><path d=" M 53.027 49.132 L 46.511 49.132 L 46.511 64.376 L 36 64.376 L 36 20.917 L 53.027 20.917 L 53.027 20.917 Q 60.772 20.917 64.829 24.759 L 64.829 24.759 L 64.829 24.759 Q 68.886 28.601 68.886 35.117 L 68.886 35.117 L 68.886 35.117 Q 68.886 39.174 67.073 42.34 L 67.073 42.34 L 67.073 42.34 Q 65.26 45.505 61.694 47.319 L 61.694 47.319 L 61.694 47.319 Q 58.129 49.132 53.027 49.132 L 53.027 49.132 Z  M 51.859 40.711 L 51.859 40.711 Q 58.191 40.711 58.191 35.117 L 58.191 35.117 L 58.191 35.117 Q 58.191 29.4 51.859 29.4 L 51.859 29.4 L 46.511 29.4 L 46.511 40.711 L 51.859 40.711 Z  M 107.981 64.376 L 96.363 64.376 L 86.959 47.964 L 84.561 47.964 L 84.561 64.376 L 74.05 64.376 L 74.05 20.917 L 91.999 20.917 L 91.999 20.917 Q 97.163 20.917 100.728 22.7 L 100.728 22.7 L 100.728 22.7 Q 104.293 24.483 106.076 27.587 L 106.076 27.587 L 106.076 27.587 Q 107.858 30.691 107.858 34.687 L 107.858 34.687 L 107.858 34.687 Q 107.858 39.42 105.246 42.739 L 105.246 42.739 L 105.246 42.739 Q 102.633 46.058 97.654 47.288 L 97.654 47.288 L 107.981 64.376 Z  M 84.561 29.769 L 84.561 40.772 L 91.077 40.772 L 91.077 40.772 Q 94.212 40.772 95.687 39.389 L 95.687 39.389 L 95.687 39.389 Q 97.163 38.006 97.163 35.301 L 97.163 35.301 L 97.163 35.301 Q 97.163 32.72 95.656 31.244 L 95.656 31.244 L 95.656 31.244 Q 94.15 29.769 91.077 29.769 L 91.077 29.769 L 84.561 29.769 Z  M 133.799 20.241 L 133.799 20.241 Q 139.946 20.241 144.955 23.099 L 144.955 23.099 L 144.955 23.099 Q 149.965 25.958 152.854 31.029 L 152.854 31.029 L 152.854 31.029 Q 155.743 36.1 155.743 42.493 L 155.743 42.493 L 155.743 42.493 Q 155.743 48.886 152.823 53.988 L 152.823 53.988 L 152.823 53.988 Q 149.904 59.09 144.894 61.948 L 144.894 61.948 L 144.894 61.948 Q 139.884 64.807 133.799 64.807 L 133.799 64.807 L 133.799 64.807 Q 127.713 64.807 122.703 61.948 L 122.703 61.948 L 122.703 61.948 Q 117.693 59.09 114.774 53.988 L 114.774 53.988 L 114.774 53.988 Q 111.854 48.886 111.854 42.493 L 111.854 42.493 L 111.854 42.493 Q 111.854 36.1 114.774 31.029 L 114.774 31.029 L 114.774 31.029 Q 117.693 25.958 122.703 23.099 L 122.703 23.099 L 122.703 23.099 Q 127.713 20.241 133.799 20.241 L 133.799 20.241 Z  M 133.799 30.015 L 133.799 30.015 Q 128.635 30.015 125.592 33.365 L 125.592 33.365 L 125.592 33.365 Q 122.55 36.715 122.55 42.493 L 122.55 42.493 L 122.55 42.493 Q 122.55 48.21 125.592 51.591 L 125.592 51.591 L 125.592 51.591 Q 128.635 54.972 133.799 54.972 L 133.799 54.972 L 133.799 54.972 Q 138.901 54.972 141.974 51.591 L 141.974 51.591 L 141.974 51.591 Q 145.048 48.21 145.048 42.493 L 145.048 42.493 L 145.048 42.493 Q 145.048 36.777 142.005 33.396 L 142.005 33.396 L 142.005 33.396 Q 138.962 30.015 133.799 30.015 L 133.799 30.015 Z  M 177.934 20.917 L 188.445 20.917 L 188.445 50.607 L 188.445 50.607 Q 188.445 57.43 184.726 61.119 L 184.726 61.119 L 184.726 61.119 Q 181.007 64.807 174.43 64.807 L 174.43 64.807 L 174.43 64.807 Q 167.3 64.807 163.12 60.781 L 163.12 60.781 L 163.12 60.781 Q 158.94 56.754 158.94 49.193 L 158.94 49.193 L 169.328 49.193 L 169.328 49.193 Q 169.328 55.279 173.938 55.279 L 173.938 55.279 L 173.938 55.279 Q 177.934 55.279 177.934 50.607 L 177.934 50.607 L 177.934 20.917 Z  M 222.438 29.277 L 205.903 29.277 L 205.903 38.375 L 220.594 38.375 L 220.594 46.304 L 205.903 46.304 L 205.903 55.955 L 222.438 55.955 L 222.438 64.376 L 195.391 64.376 L 195.391 20.917 L 222.438 20.917 L 222.438 29.277 Z  M 248.255 20.487 L 248.255 20.487 Q 256.554 20.487 261.994 24.851 L 261.994 24.851 L 261.994 24.851 Q 267.434 29.216 269.032 36.654 L 269.032 36.654 L 257.906 36.654 L 257.906 36.654 Q 256.677 33.642 254.126 31.92 L 254.126 31.92 L 254.126 31.92 Q 251.575 30.199 248.071 30.199 L 248.071 30.199 L 248.071 30.199 Q 243.461 30.199 240.633 33.58 L 240.633 33.58 L 240.633 33.58 Q 237.806 36.961 237.806 42.616 L 237.806 42.616 L 237.806 42.616 Q 237.806 48.271 240.633 51.622 L 240.633 51.622 L 240.633 51.622 Q 243.461 54.972 248.071 54.972 L 248.071 54.972 L 248.071 54.972 Q 251.575 54.972 254.126 53.25 L 254.126 53.25 L 254.126 53.25 Q 256.677 51.529 257.906 48.579 L 257.906 48.579 L 269.032 48.579 L 269.032 48.579 Q 267.434 55.955 261.994 60.35 L 261.994 60.35 L 261.994 60.35 Q 256.554 64.745 248.255 64.745 L 248.255 64.745 L 248.255 64.745 Q 241.924 64.745 237.129 61.948 L 237.129 61.948 L 237.129 61.948 Q 232.335 59.152 229.722 54.111 L 229.722 54.111 L 229.722 54.111 Q 227.11 49.071 227.11 42.616 L 227.11 42.616 L 227.11 42.616 Q 227.11 36.162 229.722 31.121 L 229.722 31.121 L 229.722 31.121 Q 232.335 26.081 237.129 23.284 L 237.129 23.284 L 237.129 23.284 Q 241.924 20.487 248.255 20.487 L 248.255 20.487 Z  M 272.106 20.917 L 306.16 20.917 L 306.16 29.277 L 294.358 29.277 L 294.358 64.376 L 283.785 64.376 L 283.785 29.277 L 272.106 29.277 L 272.106 20.917 Z  M 344.517 64.376 L 332.899 64.376 L 323.495 47.964 L 321.097 47.964 L 321.097 64.376 L 310.586 64.376 L 310.586 20.917 L 328.535 20.917 L 328.535 20.917 Q 333.699 20.917 337.264 22.7 L 337.264 22.7 L 337.264 22.7 Q 340.829 24.483 342.612 27.587 L 342.612 27.587 L 342.612 27.587 Q 344.394 30.691 344.394 34.687 L 344.394 34.687 L 344.394 34.687 Q 344.394 39.42 341.782 42.739 L 341.782 42.739 L 341.782 42.739 Q 339.169 46.058 334.19 47.288 L 334.19 47.288 L 344.517 64.376 Z  M 321.097 29.769 L 321.097 40.772 L 327.613 40.772 L 327.613 40.772 Q 330.748 40.772 332.223 39.389 L 332.223 39.389 L 332.223 39.389 Q 333.699 38.006 333.699 35.301 L 333.699 35.301 L 333.699 35.301 Q 333.699 32.72 332.192 31.244 L 332.192 31.244 L 332.192 31.244 Q 330.686 29.769 327.613 29.769 L 327.613 29.769 L 321.097 29.769 Z " fill="rgb(0,0,0)"/><rect x="0" y="21.64" width="29.271" height="29.271" transform="matrix(1,0,0,1,0,0)" fill="rgb(10,142,255)"/></g></svg>